<svg width="50" height="50" viewBox="0 0 50 50" fill="none" xmlns="http://www.w3.org/2000/svg">
<path d="M39.233 29.6143C39.9492 29.6143 40.6328 29.7445 41.2838 30.0049C41.9349 30.2653 42.5208 30.6559 43.0416 31.1768L48.4127 36.5478C48.9173 37.0524 49.2998 37.6302 49.5602 38.2812C49.8206 38.9323 49.9589 39.624 49.9752 40.3564C49.9752 41.0726 49.845 41.7562 49.5846 42.4072C49.3242 43.0583 48.9336 43.6442 48.4127 44.165L48.0709 44.5068C47.192 45.3857 46.3864 46.167 45.6539 46.8506C44.9215 47.5342 44.1565 48.1038 43.359 48.5596C42.5615 49.0153 41.6744 49.3734 40.6979 49.6338C39.7213 49.8942 38.5576 50.0163 37.2067 50C35.1722 50 33.0807 49.6826 30.9323 49.0478C28.7838 48.4131 26.6517 47.5342 24.5358 46.4111C22.4199 45.2881 20.3365 43.9534 18.2858 42.4072C16.235 40.861 14.3063 39.1764 12.4996 37.3535C10.693 35.5306 9.01656 33.5937 7.47034 31.543C5.92411 29.4922 4.60575 27.4089 3.51526 25.293C2.42476 23.1771 1.56213 21.0531 0.927368 18.9209C0.292603 16.7887 -0.0166423 14.738 -0.000366211 12.7686C-0.000366211 11.4176 0.113566 10.262 0.341431 9.30176C0.569295 8.34147 0.91923 7.46256 1.39124 6.66504C1.86324 5.86751 2.4329 5.11068 3.10022 4.39453C3.76754 3.67839 4.54879 2.87272 5.44397 1.97754L5.83459 1.58691C6.33915 1.08236 6.91695 0.691732 7.56799 0.415039C8.21904 0.138346 8.91077 0 9.64319 0C10.3593 0 11.0429 0.138346 11.694 0.415039C12.345 0.691732 12.931 1.08236 13.4518 1.58691L18.8229 6.95801C19.3274 7.46256 19.7099 8.04036 19.9703 8.69141C20.2308 9.34245 20.3691 10.0342 20.3854 10.7666C20.3854 11.4827 20.2633 12.1175 20.0192 12.6709C19.775 13.2243 19.4739 13.737 19.1158 14.209C18.7578 14.681 18.3671 15.096 17.944 15.4541C17.5208 15.8122 17.122 16.1784 16.7477 16.5527C16.3733 16.9271 16.0722 17.2852 15.8444 17.627C15.6165 17.9687 15.4944 18.3675 15.4782 18.8232C15.4782 19.4417 15.6979 19.9707 16.1373 20.4102L29.5895 33.8623C30.0289 34.3018 30.5579 34.5215 31.1764 34.5215C31.5996 34.5215 31.9902 34.3994 32.3483 34.1553C32.7063 33.9111 33.0726 33.61 33.4469 33.2519C33.8212 32.8939 34.1875 32.5033 34.5455 32.0801C34.9036 31.6569 35.3186 31.2581 35.7906 30.8838C36.2627 30.5094 36.7672 30.2083 37.3043 29.9805C37.8414 29.7526 38.4843 29.6305 39.233 29.6143ZM37.2067 46.875C38.3785 46.875 39.3551 46.7692 40.1364 46.5576C40.9176 46.346 41.6337 46.0286 42.2848 45.6055C42.9358 45.1823 43.5543 44.6615 44.1403 44.043C44.7262 43.4245 45.4179 42.7246 46.2155 41.9434C46.6549 41.5039 46.8746 40.9749 46.8746 40.3564C46.8746 40.0635 46.7607 39.7217 46.5328 39.3311C46.305 38.9404 45.9957 38.5173 45.6051 38.0615C45.2145 37.6058 44.7994 37.1582 44.36 36.7187C43.9205 36.2793 43.4648 35.8398 42.9928 35.4004C42.5208 34.9609 42.1058 34.5784 41.7477 34.2529C41.3896 33.9274 41.0885 33.6426 40.8444 33.3984C40.4049 32.959 39.8678 32.7393 39.233 32.7393C38.8099 32.7393 38.4192 32.8613 38.0612 33.1055C37.7031 33.3496 37.345 33.6507 36.9869 34.0088C36.6289 34.3669 36.2627 34.7575 35.8883 35.1807C35.514 35.6038 35.0908 36.0026 34.6188 36.3769C34.1468 36.7513 33.6422 37.0524 33.1051 37.2803C32.568 37.5081 31.9251 37.6302 31.1764 37.6465C30.4602 37.6465 29.7767 37.5163 29.1256 37.2559C28.4746 36.9954 27.8886 36.6048 27.3678 36.084L13.9157 22.6318C13.4111 22.1273 13.0286 21.5495 12.7682 20.8984C12.5078 20.2474 12.3694 19.5557 12.3531 18.8232C12.3531 18.1071 12.4752 17.4723 12.7194 16.9189C12.9635 16.3656 13.2646 15.8529 13.6227 15.3809C13.9808 14.9089 14.3714 14.4938 14.7946 14.1357C15.2177 13.7777 15.6165 13.4033 15.9908 13.0127C16.3652 12.6221 16.6663 12.264 16.8942 11.9385C17.122 11.613 17.2441 11.2223 17.2604 10.7666C17.2604 10.1318 17.0406 9.59473 16.6012 9.15527C16.3896 8.94368 16.1129 8.65071 15.7711 8.27637C15.4293 7.90202 15.0468 7.48698 14.6237 7.03125C14.2005 6.57552 13.761 6.11979 13.3053 5.66406C12.8496 5.20833 12.3938 4.78516 11.9381 4.39453C11.4824 4.00391 11.0673 3.7028 10.693 3.49121C10.3186 3.27962 9.96871 3.15755 9.64319 3.125C9.0247 3.125 8.49573 3.34473 8.05627 3.78418L5.98108 5.85937C5.37887 6.46159 4.85803 7.08008 4.41858 7.71484C3.97913 8.34961 3.6536 9.05762 3.44202 9.83887C3.23043 10.6201 3.1165 11.5967 3.10022 12.7686C3.10022 14.5915 3.39319 16.4714 3.97913 18.4082C4.56506 20.3451 5.387 22.2819 6.44495 24.2187C7.50289 26.1556 8.74801 28.0599 10.1803 29.9316C11.6126 31.8034 13.1751 33.5856 14.8678 35.2783C16.5605 36.971 18.3427 38.5173 20.2145 39.917C22.0862 41.3167 23.9905 42.5374 25.9274 43.5791C27.8642 44.6208 29.7848 45.4264 31.6891 45.9961C33.5934 46.5658 35.4326 46.8587 37.2067 46.875Z" fill="#E3DED8"/>
</svg>
