<?xml version="1.0" standalone="no"?>
<!DOCTYPE svg PUBLIC "-//W3C//DTD SVG 20010904//EN"
 "http://www.w3.org/TR/2001/REC-SVG-20010904/DTD/svg10.dtd">
<svg version="1.0" xmlns="http://www.w3.org/2000/svg"
 width="656.000000pt" height="656.000000pt" viewBox="0 0 656.000000 656.000000"
 preserveAspectRatio="xMidYMid meet">
<metadata>
Created by potrace 1.14, written by Peter Selinger 2001-2017
</metadata>
<g transform="translate(0.000000,656.000000) scale(0.100000,-0.100000)"
fill="#000000" stroke="none">
<path d="M2586 6526 c-14 -19 -26 -39 -26 -44 0 -6 -3 -12 -7 -14 -8 -3 -224
-324 -232 -343 -2 -5 -7 -12 -10 -15 -4 -3 -21 -27 -39 -55 -46 -71 -48 -74
-92 -138 -22 -32 -40 -64 -40 -71 0 -7 17 -35 38 -63 20 -29 140 -197 267
-375 126 -178 234 -327 238 -333 5 -5 114 -158 243 -340 283 -397 261 -367
304 -425 19 -27 42 -58 50 -70 45 -67 43 -66 75 -19 17 24 35 50 42 59 7 8 51
69 97 135 47 66 89 125 93 130 5 6 29 39 53 75 25 35 50 71 57 80 43 54 203
283 203 290 0 5 4 10 8 12 4 2 23 25 42 53 19 27 38 54 43 60 4 5 21 28 37 50
16 22 34 45 40 52 5 7 10 16 10 22 0 5 4 11 8 13 4 2 33 39 63 82 29 44 60 87
68 95 13 15 165 228 252 354 22 32 38 64 35 72 -4 10 -110 173 -226 345 -6 8
-42 62 -80 120 -38 58 -73 110 -77 115 -4 6 -25 36 -46 68 l-37 57 -714 0
-714 0 -26 -34z m1236 -205 c25 -1 46 -28 198 -257 93 -141 170 -260 170 -265
0 -7 -93 -141 -127 -184 -5 -5 -35 -48 -68 -95 -33 -47 -63 -86 -67 -88 -4 -2
-8 -8 -8 -13 0 -6 -4 -15 -10 -22 -37 -46 -131 -175 -190 -263 -8 -13 -60 -85
-115 -161 -55 -75 -102 -142 -104 -148 -2 -5 -7 -12 -11 -15 -3 -3 -39 -52
-80 -110 -41 -58 -75 -107 -77 -109 -5 -7 -36 29 -81 95 -23 34 -48 69 -57 77
-8 9 -15 18 -15 21 0 3 -32 49 -71 103 -39 54 -78 109 -87 122 -9 13 -23 29
-29 36 -7 8 -13 16 -13 18 0 5 -459 651 -478 672 -5 6 -17 23 -26 37 -17 27
-17 29 5 65 13 21 27 40 31 41 4 2 8 10 8 18 0 8 5 14 10 14 6 0 10 6 10 14 0
8 3 16 8 18 4 2 32 41 62 88 30 47 57 87 60 90 3 3 34 49 69 102 34 53 70 98
79 100 13 2 910 1 1004 -1z"/>
<path d="M2330 5020 c-8 -4 -70 -35 -136 -68 -172 -85 -380 -216 -459 -289
-11 -10 -42 -36 -69 -58 -62 -50 -207 -194 -266 -264 -25 -29 -50 -59 -55 -65
-44 -48 -177 -244 -231 -341 -34 -60 -105 -212 -138 -295 -21 -52 -42 -104
-46 -115 -19 -46 -75 -253 -85 -315 -3 -19 -8 -43 -11 -52 -3 -9 -6 -32 -8
-50 -2 -18 -7 -53 -10 -78 -4 -25 -9 -63 -12 -85 -8 -59 -8 -431 0 -500 7 -62
26 -199 31 -225 17 -81 46 -202 54 -221 5 -13 8 -26 8 -29 -1 -9 35 -114 70
-205 34 -88 111 -250 155 -330 25 -43 187 -287 197 -295 3 -3 26 -30 51 -60
79 -98 186 -209 283 -293 33 -29 65 -57 71 -62 6 -6 52 -40 101 -76 78 -56
127 -89 220 -146 32 -20 266 -137 310 -155 98 -40 219 -80 329 -109 139 -36
121 -32 266 -54 121 -19 246 -28 370 -28 115 1 276 10 320 18 13 3 42 7 65 10
22 3 54 8 70 12 17 3 39 7 50 9 133 18 448 125 618 210 138 69 387 224 395
246 2 4 10 8 17 8 7 0 15 4 17 9 2 4 30 30 63 57 126 102 263 244 410 426 57
70 215 324 215 345 0 7 4 13 9 13 5 0 11 8 14 18 3 9 28 67 55 127 45 98 116
297 127 350 2 11 4 20 5 20 2 0 1 -5 29 125 41 192 55 325 54 535 0 181 -9
283 -38 450 -21 121 -25 137 -36 171 -5 17 -11 40 -14 50 -10 47 -61 206 -84
259 -5 11 -13 31 -18 45 -20 49 -137 286 -153 310 -10 14 -47 71 -84 126 -37
56 -74 111 -84 122 -9 11 -33 40 -52 64 -164 202 -388 399 -620 543 -110 68
-361 196 -372 189 -6 -4 -128 -250 -128 -259 0 -5 188 -95 199 -95 6 0 11 -4
11 -8 0 -5 17 -16 38 -26 45 -21 166 -98 170 -108 2 -5 9 -8 15 -8 18 -1 202
-151 291 -238 175 -170 324 -376 430 -592 33 -69 67 -141 74 -160 24 -62 72
-204 77 -225 2 -11 14 -60 25 -108 11 -48 23 -105 26 -125 3 -20 7 -48 10 -62
32 -185 22 -564 -21 -752 -7 -32 -11 -58 -8 -58 3 0 0 -6 -6 -13 -6 -8 -8 -16
-6 -19 3 -3 1 -18 -6 -34 -6 -16 -13 -38 -15 -48 -5 -29 -66 -209 -73 -221 -4
-5 -18 -37 -31 -70 -57 -142 -169 -331 -289 -485 -76 -99 -251 -281 -319 -333
-26 -19 -58 -45 -72 -57 -80 -70 -456 -290 -497 -290 -4 0 -20 -6 -34 -14 -42
-22 -292 -100 -353 -110 -16 -3 -52 -10 -80 -15 -195 -38 -538 -47 -701 -17
-11 2 -42 7 -70 11 -27 5 -52 9 -55 10 -3 1 -23 5 -45 9 -68 13 -271 74 -352
107 -183 72 -468 238 -583 339 -19 17 -57 50 -84 73 -95 83 -197 193 -284 307
-31 41 -60 80 -65 85 -45 56 -173 288 -219 400 -34 80 -95 259 -102 296 -2 13
-5 24 -6 24 -1 0 -3 7 -5 15 -2 8 -6 29 -10 45 -3 17 -8 40 -10 52 -2 12 -6
36 -11 55 -4 18 -8 47 -10 63 -2 17 -6 55 -10 85 -10 71 -11 396 -2 480 18
168 63 364 117 515 12 33 23 65 25 70 20 64 101 224 172 341 131 218 279 387
506 577 75 63 272 187 408 255 100 51 144 78 142 88 -2 9 -28 64 -58 124 -30
60 -54 114 -54 120 0 12 -9 12 -30 0z"/>
</g>
</svg>
